<svg width="144" height="186" viewBox="0 0 144 186" fill="none" xmlns="http://www.w3.org/2000/svg">
<circle cx="72" cy="72.4585" r="71.5" fill="#F1F1F1"/>
<rect x="43.9496" y="71.0012" width="70" height="98" rx="7" transform="rotate(2.5 43.9496 71.0012)" fill="#EEEEEE" stroke="#999999" stroke-width="2"/>
<rect x="2.33506" y="65.1392" width="74" height="102" rx="9" transform="rotate(-7.5 2.33506 65.1392)" fill="#FAFAFA" stroke="#999999" stroke-width="2"/>
<path d="M4.50124 73.9316C3.92454 69.5512 7.00811 65.5326 11.3886 64.9559L66.9095 57.6464C71.29 57.0697 75.3086 60.1533 75.8853 64.5338L77.8432 79.4054L6.45913 88.8033L4.50124 73.9316Z" fill="#EEEEEE"/>
<rect x="90.3672" y="59.6015" width="3" height="10" rx="1.5" transform="rotate(82.5 90.3672 59.6015)" fill="#999999"/>
<rect x="62.9688" y="43.0358" width="3" height="10" rx="1.5" transform="rotate(-7.5 62.9688 43.0358)" fill="#999999"/>
<rect x="80.5469" y="45.7648" width="3" height="10" rx="1.5" transform="rotate(37.5 80.5469 45.7648)" fill="#999999"/>
<rect x="13.9219" y="91.8554" width="58" height="4" rx="2" transform="rotate(-7.5 13.9219 91.8554)" fill="#DCDCDC"/>
<rect x="16.5332" y="111.684" width="58" height="4" rx="2" transform="rotate(-7.5 16.5332 111.684)" fill="#DCDCDC"/>
<rect x="19.1426" y="131.513" width="58" height="4" rx="2" transform="rotate(-7.5 19.1426 131.513)" fill="#DCDCDC"/>
<rect x="14.9668" y="99.787" width="21" height="4" rx="2" transform="rotate(-7.5 14.9668 99.787)" fill="#EEEEEE"/>
<rect x="17.5762" y="119.616" width="21" height="4" rx="2" transform="rotate(-7.5 17.5762 119.616)" fill="#EEEEEE"/>
<rect x="20.1875" y="139.445" width="21" height="4" rx="2" transform="rotate(-7.5 20.1875 139.445)" fill="#EEEEEE"/>
</svg>
